<svg width="74" height="20" viewBox="0 0 74 20" fill="none" xmlns="http://www.w3.org/2000/svg">
<path d="M28.612 14L28.598 6.86L25.056 12.81H24.412L20.87 6.902V14H19.526V4.2H20.674L24.762 11.088L28.794 4.2H29.942L29.956 14H28.612ZM35.9605 14.084C35.2231 14.084 34.5605 13.9207 33.9725 13.594C33.3845 13.2673 32.9225 12.8193 32.5865 12.25C32.2598 11.6713 32.0965 11.018 32.0965 10.29C32.0965 9.562 32.2598 8.91333 32.5865 8.344C32.9225 7.76533 33.3845 7.31733 33.9725 7C34.5605 6.67333 35.2231 6.51 35.9605 6.51C36.6978 6.51 37.3558 6.67333 37.9345 7C38.5225 7.31733 38.9798 7.76533 39.3065 8.344C39.6425 8.91333 39.8105 9.562 39.8105 10.29C39.8105 11.018 39.6425 11.6713 39.3065 12.25C38.9798 12.8193 38.5225 13.2673 37.9345 13.594C37.3558 13.9207 36.6978 14.084 35.9605 14.084ZM35.9605 12.908C36.4365 12.908 36.8611 12.8007 37.2345 12.586C37.6171 12.362 37.9158 12.054 38.1305 11.662C38.3451 11.2607 38.4525 10.8033 38.4525 10.29C38.4525 9.77667 38.3451 9.324 38.1305 8.932C37.9158 8.53067 37.6171 8.22267 37.2345 8.008C36.8611 7.79333 36.4365 7.686 35.9605 7.686C35.4845 7.686 35.0551 7.79333 34.6725 8.008C34.2991 8.22267 34.0005 8.53067 33.7765 8.932C33.5618 9.324 33.4545 9.77667 33.4545 10.29C33.4545 10.8033 33.5618 11.2607 33.7765 11.662C34.0005 12.054 34.2991 12.362 34.6725 12.586C35.0551 12.8007 35.4845 12.908 35.9605 12.908ZM44.9852 14.084C44.2292 14.084 43.5526 13.9207 42.9552 13.594C42.3672 13.2673 41.9052 12.8193 41.5692 12.25C41.2332 11.6713 41.0652 11.018 41.0652 10.29C41.0652 9.562 41.2332 8.91333 41.5692 8.344C41.9052 7.76533 42.3672 7.31733 42.9552 7C43.5526 6.67333 44.2292 6.51 44.9852 6.51C45.6572 6.51 46.2546 6.64533 46.7772 6.916C47.3092 7.18667 47.7199 7.57867 48.0092 8.092L46.9872 8.75C46.7539 8.39533 46.4646 8.12933 46.1192 7.952C45.7739 7.77467 45.3912 7.686 44.9712 7.686C44.4859 7.686 44.0472 7.79333 43.6552 8.008C43.2726 8.22267 42.9692 8.53067 42.7452 8.932C42.5306 9.324 42.4232 9.77667 42.4232 10.29C42.4232 10.8127 42.5306 11.2747 42.7452 11.676C42.9692 12.068 43.2726 12.3713 43.6552 12.586C44.0472 12.8007 44.4859 12.908 44.9712 12.908C45.3912 12.908 45.7739 12.8193 46.1192 12.642C46.4646 12.4647 46.7539 12.1987 46.9872 11.844L48.0092 12.488C47.7199 13.0013 47.3092 13.398 46.7772 13.678C46.2546 13.9487 45.6572 14.084 44.9852 14.084ZM52.6333 10.864H51.0933V14H49.7493V6.58H51.0933V9.716H52.6613L55.0693 6.58H56.5113L53.6973 10.15L56.7073 14H55.1253L52.6333 10.864ZM63.1705 10.15C64.1318 10.3927 64.6125 10.9947 64.6125 11.956C64.6125 12.6093 64.3651 13.1133 63.8705 13.468C63.3851 13.8227 62.6571 14 61.6865 14H58.1165V6.58H61.5605C62.4378 6.58 63.1238 6.748 63.6185 7.084C64.1131 7.41067 64.3605 7.87733 64.3605 8.484C64.3605 8.876 64.2531 9.21667 64.0385 9.506C63.8331 9.786 63.5438 10.0007 63.1705 10.15ZM59.4325 9.772H61.4485C61.9618 9.772 62.3491 9.67867 62.6105 9.492C62.8811 9.30533 63.0165 9.03467 63.0165 8.68C63.0165 7.97067 62.4938 7.616 61.4485 7.616H59.4325V9.772ZM61.5885 12.964C62.1485 12.964 62.5685 12.8753 62.8485 12.698C63.1285 12.5207 63.2685 12.2453 63.2685 11.872C63.2685 11.4893 63.1378 11.2047 62.8765 11.018C62.6245 10.8313 62.2231 10.738 61.6725 10.738H59.4325V12.964H61.5885ZM69.3621 6.51C70.3887 6.51 71.1727 6.762 71.7141 7.266C72.2647 7.77 72.5401 8.52133 72.5401 9.52V14H71.2661V13.02C71.0421 13.3653 70.7201 13.6313 70.3001 13.818C69.8894 13.9953 69.3994 14.084 68.8301 14.084C67.9994 14.084 67.3321 13.8833 66.8281 13.482C66.3334 13.0807 66.0861 12.5533 66.0861 11.9C66.0861 11.2467 66.3241 10.724 66.8001 10.332C67.2761 9.93067 68.0321 9.73 69.0681 9.73H71.1961V9.464C71.1961 8.88533 71.0281 8.442 70.6921 8.134C70.3561 7.826 69.8614 7.672 69.2081 7.672C68.7694 7.672 68.3401 7.74667 67.9201 7.896C67.5001 8.036 67.1454 8.22733 66.8561 8.47L66.2961 7.462C66.6787 7.154 67.1361 6.92067 67.6681 6.762C68.2001 6.594 68.7647 6.51 69.3621 6.51ZM69.0541 13.048C69.5674 13.048 70.0107 12.936 70.3841 12.712C70.7574 12.4787 71.0281 12.152 71.1961 11.732V10.696H69.1241C67.9854 10.696 67.4161 11.0787 67.4161 11.844C67.4161 12.2173 67.5607 12.5113 67.8501 12.726C68.1394 12.9407 68.5407 13.048 69.0541 13.048Z" fill="#2B7BC6"/>
<g clip-path="url(#clip0_0_732)">
<path fill-rule="evenodd" clip-rule="evenodd" d="M10 8.70476C10 6.10476 7.76221 4 4.99789 4C1.77284 4 -0.728211 6.90952 0.193231 10.1286C0.324865 10.5 0.522317 10.9333 0.785586 11.3048L0.851403 11.3667L4.60299 16.8143C4.80044 17.0619 5.19534 17.0619 5.39279 16.8143L9.21019 11.2429C9.73673 10.5 10 9.57143 10 8.70476ZM6.42855 8.84025C6.42855 9.5498 5.76921 10.158 4.99998 10.158C4.23075 10.158 3.57141 9.65116 3.57141 8.84025C3.57141 8.02933 4.23075 7.42114 4.99998 7.42114C5.8791 7.42114 6.42855 8.13069 6.42855 8.84025Z" fill="#FFD600"/>
</g>
<path d="M19.5 19.5H72.5" stroke="#2B7BC6" stroke-dasharray="3 2"/>
<defs>
<clipPath id="clip0_0_732">
<rect width="10" height="13" fill="white" transform="translate(0 4)"/>
</clipPath>
</defs>
</svg>
